# xmcd
#
# Track frame offsets:
#	150
#	113797
#	173006
#	206200
#	246883
#	282168
#	317860
#
# Disc length: 4627 seconds
#
# Revision: 5
# Processed by: cddbd v1.5.2PL0 Copyright (c) Steve Scherf et al.
# Submitted via: EasyCDDAExtractor 15.3.0.1
#
DISCID=63121107
DTITLE=Emmanuel - Emmanuel Presenta... - CD 2
DYEAR=2003
DGENRE=Latin
TTITLE0=Mix Session Emmanuel
TTITLE1=¡Que No Se Acabe!
TTITLE2=''Guajira'' (Sanchez Salsero Mix)
TTITLE3=''El Bodeguero'' (Cafe Del Mar Club)
TTITLE4=''Falsaria'' (Albert Cabrera 12 Inch Mix)
TTITLE5=''Suavecito'' (Robbie Rivera Club Mix)
TTITLE6=''Perdon'' (DJ Dero Remix)
EXTD=YEAR: 2003
EXTT0=
EXTT1=
EXTT2=
EXTT3=
EXTT4=
EXTT5=
EXTT6=
PLAYORDER=
